<svg width="20" height="20" viewBox="0 0 20 20" fill="none" xmlns="http://www.w3.org/2000/svg">
<path d="M9.766 9.29261C10.5164 9.49156 12.1493 9.92449 12.4339 8.78937C12.7243 7.628 11.1378 7.27724 10.3611 7.1055C10.2731 7.08604 10.1955 7.06888 10.1321 7.05309L9.58354 9.24516C9.63579 9.25808 9.6972 9.27436 9.766 9.29261Z" fill="#F7931A"/>
<path d="M8.91577 12.8219C9.81455 13.0587 11.7803 13.5765 12.093 12.3257C12.4132 11.0468 10.5072 10.6208 9.57727 10.4129C9.47344 10.3897 9.38173 10.3692 9.3067 10.3506L8.7016 12.7665C8.76307 12.7817 8.83518 12.8007 8.91577 12.8219Z" fill="#F7931A"/>
<path fill-rule="evenodd" clip-rule="evenodd" d="M19.999 10C19.999 15.5228 15.5221 20 9.99951 20C4.47693 20 0 15.5228 0 10C0 4.47715 4.47693 0 9.99951 0C15.5221 0 19.999 4.47715 19.999 10ZM12.4019 6.28465C13.7928 6.76233 14.8103 7.4776 14.6107 8.80872C14.4657 9.78346 13.9234 10.2549 13.2028 10.42C14.1914 10.9326 14.5283 11.9057 14.2153 13.0822C13.6208 14.7753 12.2079 14.9179 10.3286 14.564L9.87225 16.3841L8.77065 16.1102L9.22071 14.3145C8.93511 14.2439 8.64323 14.1682 8.34257 14.0876L7.89063 15.892L6.79028 15.6182L7.24598 13.7943L5.02709 13.2366L5.57444 11.9799C5.57444 11.9799 6.38667 12.1944 6.37537 12.1787C6.68734 12.2556 6.82606 12.0531 6.88067 11.9186L8.11722 6.97866C8.13103 6.74545 8.05006 6.45159 7.60377 6.34029C7.62072 6.32842 6.80346 6.1421 6.80346 6.1421L7.09659 4.96978L9.31863 5.51811L9.77057 3.71493L10.8715 3.98879L10.429 5.75633C10.7253 5.82323 11.0228 5.89138 11.3122 5.96328L11.7516 4.20699L12.8532 4.48085L12.4019 6.28465Z" fill="#F7931A"/>
</svg>
