<svg width="33" height="32" viewBox="0 0 33 32" fill="none" xmlns="http://www.w3.org/2000/svg">
<path fill-rule="evenodd" clip-rule="evenodd" d="M13.2536 11.52C8.83535 11.52 5.25363 15.1017 5.25363 19.52C5.25363 23.9383 8.83535 27.52 13.2536 27.52C17.6719 27.52 21.2536 23.9383 21.2536 19.52C21.2536 15.1017 17.6719 11.52 13.2536 11.52ZM3.97363 19.52C3.97363 14.3948 8.12843 10.24 13.2536 10.24C18.3788 10.24 22.5336 14.3948 22.5336 19.52C22.5336 24.6452 18.3788 28.8 13.2536 28.8C8.12843 28.8 3.97363 24.6452 3.97363 19.52Z" fill="#204588"/>
<path fill-rule="evenodd" clip-rule="evenodd" d="M20.0932 4.68002C17.6445 4.68002 15.4533 5.77932 13.9849 7.51359C13.7565 7.78334 13.3526 7.81686 13.0829 7.58845C12.8131 7.36005 12.7796 6.95621 13.008 6.68646C14.7093 4.67723 17.2524 3.40002 20.0932 3.40002C25.2184 3.40002 29.3732 7.55482 29.3732 12.68C29.3732 15.5208 28.0959 18.0639 26.0867 19.7651C25.817 19.9936 25.4131 19.96 25.1847 19.6903C24.9563 19.4205 24.9898 19.0167 25.2596 18.7883C26.9939 17.3198 28.0932 15.1286 28.0932 12.68C28.0932 8.26175 24.5114 4.68002 20.0932 4.68002Z" fill="#204588"/>
<path fill-rule="evenodd" clip-rule="evenodd" d="M13.1539 18.2351L12.33 19.3586C12.1209 19.6436 11.7204 19.7052 11.4354 19.4962C11.1504 19.2872 11.0887 18.8866 11.2978 18.6016L12.9887 16.2957C13.446 15.6722 14.4339 15.9956 14.4339 16.7688V21.0401H15.5939C15.9473 21.0401 16.2339 21.3266 16.2339 21.6801C16.2339 22.0335 15.9473 22.3201 15.5939 22.3201H11.8139C11.4604 22.3201 11.1739 22.0335 11.1739 21.6801C11.1739 21.3266 11.4604 21.0401 11.8139 21.0401H13.1539V18.2351Z" fill="#204588"/>
<path fill-rule="evenodd" clip-rule="evenodd" d="M7.15753 1.86155C7.36656 1.57651 7.76707 1.51489 8.0521 1.72392L10.7521 3.70392C11.0223 3.90207 11.0939 4.27508 10.9164 4.55922L9.11635 7.43922C8.92902 7.73895 8.53417 7.83007 8.23443 7.64274C7.9347 7.4554 7.84358 7.06055 8.03091 6.76082L9.18439 4.91526C7.93415 5.03583 6.90924 5.35656 6.12105 5.90578C5.11955 6.60365 4.41556 7.73013 4.16763 9.52747C4.11933 9.87762 3.79632 10.1223 3.44618 10.074C3.09603 10.0257 2.85134 9.70271 2.89964 9.35256C3.1858 7.27806 4.0368 5.79802 5.38927 4.85559C6.29003 4.22792 7.37389 3.86664 8.57947 3.69795L7.29516 2.75612C7.01013 2.54709 6.94851 2.14658 7.15753 1.86155Z" fill="#63B3F7"/>
<path fill-rule="evenodd" clip-rule="evenodd" d="M25.8298 29.9785C25.6207 30.2636 25.2202 30.3252 24.9352 30.1162L22.2352 28.1362C21.965 27.938 21.8934 27.565 22.071 27.2809L23.871 24.4009C24.0583 24.1011 24.4531 24.01 24.7529 24.1973C25.0526 24.3847 25.1437 24.7795 24.9564 25.0793L23.8029 26.9248C25.0532 26.8043 26.0781 26.4835 26.8663 25.9343C27.8678 25.2364 28.5717 24.11 28.8197 22.3126C28.868 21.9625 29.191 21.7178 29.5411 21.7661C29.8913 21.8144 30.136 22.1374 30.0877 22.4875C29.8015 24.562 28.9505 26.0421 27.598 26.9845C26.6973 27.6122 25.6134 27.9735 24.4078 28.1421L25.6921 29.084C25.9772 29.293 26.0388 29.6935 25.8298 29.9785Z" fill="#63B3F7"/>
</svg>
